<?xml version="1.0" encoding="UTF-8"?>
<!DOCTYPE svg PUBLIC "-//W3C//DTD SVG 1.0//EN" "http://www.w3.org/TR/2001/REC-SVG-20010904/DTD/svg10.dtd">
<!-- Creator: CorelDRAW Home & Student 2014 -->
<svg xmlns="http://www.w3.org/2000/svg" xml:space="preserve" width="70px" height="70px" version="1.0" style="shape-rendering:geometricPrecision; text-rendering:geometricPrecision; image-rendering:optimizeQuality; fill-rule:evenodd; clip-rule:evenodd"
viewBox="0 0 70000 70000"
 xmlns:xlink="http://www.w3.org/1999/xlink">
 <defs>
  <style type="text/css">
   <![CDATA[
    .fil0 {fill:#1376D1}
   ]]>
  </style>
 </defs>
 <g id="Layer_x0020_1">
  <metadata id="CorelCorpID_0Corel-Layer"/>
  <path class="fil0" d="M25072 49187l0 -28374c0,-1105 896,-2000 2000,-2000 433,0 834,138 1161,371l23508 14105c945,565 1253,1790 688,2734 -180,302 -427,538 -711,702l-23622 14173c-945,565 -2170,258 -2735,-687 -192,-322 -283,-675 -283,-1024l-6 0zm9928 -49187c9665,0 18415,3918 24748,10252 6334,6333 10252,15083 10252,24748 0,9665 -3918,18415 -10252,24748 -6333,6334 -15083,10252 -24748,10252 -9665,0 -18415,-3918 -24748,-10252 -6334,-6333 -10252,-15083 -10252,-24748 0,-9665 3918,-18415 10252,-24748 6333,-6334 15083,-10252 24748,-10252zm21921 13079c-5610,-5609 -13360,-9079 -21921,-9079 -8561,0 -16311,3470 -21921,9079 -5609,5610 -9079,13360 -9079,21921 0,8561 3470,16311 9079,21921 5610,5609 13360,9079 21921,9079 8561,0 16311,-3470 21921,-9079 5609,-5610 9079,-13360 9079,-21921 0,-8561 -3470,-16311 -9079,-21921z"/>
 </g>
</svg>
