<?xml version="1.0" encoding="UTF-8"?>
<!DOCTYPE svg PUBLIC "-//W3C//DTD SVG 1.0//EN" "http://www.w3.org/TR/2001/REC-SVG-20010904/DTD/svg10.dtd">
<!-- Creator: CorelDRAW Home & Student 2014 -->
<svg xmlns="http://www.w3.org/2000/svg" xml:space="preserve" width="80px" height="88px" version="1.0" style="shape-rendering:geometricPrecision; text-rendering:geometricPrecision; image-rendering:optimizeQuality; fill-rule:evenodd; clip-rule:evenodd"
viewBox="0 0 80000 88000"
 xmlns:xlink="http://www.w3.org/1999/xlink">
 <defs>
  <style type="text/css">
   <![CDATA[
    .str0 {stroke:#1376D1;stroke-width:2999.82;stroke-linecap:round;stroke-linejoin:round}
    .fil3 {fill:#338CDE}
    .fil0 {fill:#A2DEFF}
    .fil2 {fill:#E0F4FB}
    .fil4 {fill:white}
    .fil1 {fill:#1376D1;fill-rule:nonzero}
   ]]>
  </style>
 </defs>
 <g id="Layer_x0020_1">
  <metadata id="CorelCorpID_0Corel-Layer"/>
  <g id="_609106536">
   <path class="fil0" d="M56935 74855c-1339,-14887 -5497,-28831 -16474,-29043 -10753,-208 -15511,14064 -17618,28932 5170,2564 10994,4008 17157,4008 6074,0 11821,-1402 16935,-3897z"/>
   <path class="fil1" d="M55879 74251c-681,-7090 -2022,-13902 -4465,-18991 -2418,-5037 -5926,-8354 -10968,-8452 -4929,-95 -8525,3206 -11150,8273 -2649,5116 -4314,11999 -5361,19083 2363,1116 4863,1995 7469,2603 2757,644 5635,985 8596,985 2922,0 5761,-331 8480,-957 2574,-592 5050,-1451 7399,-2544zm-2668 -19850c2625,5470 4026,12759 4708,20276 78,429 -135,876 -546,1076 -2658,1297 -5488,2307 -8448,2988 -2874,661 -5862,1011 -8925,1011 -3109,0 -6139,-360 -9049,-1039 -2982,-697 -5839,-1732 -8525,-3062 -389,-179 -633,-598 -572,-1044 1068,-7532 2814,-14927 5669,-20439 2969,-5733 7130,-9465 12954,-9352 5934,114 9994,3876 12734,9585z"/>
   <path class="fil2 str0" d="M39621 18910c8127,0 14715,6588 14715,14715 0,8127 -6588,14715 -14715,14715 -8127,0 -14715,-6588 -14715,-14715 0,-8127 6588,-14715 14715,-14715z"/>
   <path class="fil3" d="M25049 35681c667,-3243 2809,-8711 5395,-7013 1723,2531 12332,2904 20036,-717 1840,767 2042,3197 3823,6663 2879,-1909 2801,-7873 1648,-10618 1772,-2035 2830,-4592 2700,-7748 -1993,2687 -5107,2187 -8357,984 -5427,-3709 -12755,-4405 -18703,-1531 -13119,6340 -10347,22549 -6542,19980z"/>
   <path class="fil1" d="M23957 33875c452,-1584 1141,-3347 1997,-4652l-4 -3c469,-714 1006,-1319 1610,-1737 762,-528 1601,-755 2515,-567 399,82 798,247 1189,504 170,111 309,252 416,410 628,922 3539,1407 7214,1275 3498,-124 7537,-901 10953,-2507 396,-185 832,-182 1206,-26l1 -3c1802,751 2399,2234 3257,4374 105,262 215,536 333,821 197,-500 338,-1066 430,-1660 310,-2001 48,-4209 -506,-5528 -233,-556 -106,-1172 274,-1590 790,-913 1413,-1937 1810,-3076 60,-173 115,-349 165,-529 -578,186 -1184,285 -1815,312 -1670,70 -3442,-396 -5224,-1055 -136,-50 -261,-118 -373,-200 -2504,-1701 -5450,-2706 -8455,-2952 -2978,-243 -6006,257 -8709,1563 -6498,3140 -8726,8906 -8849,13150 -34,1164 90,2196 325,3006 75,256 155,481 240,670zm4495 -3015c-900,1371 -1587,3456 -1920,5029 -57,406 -279,787 -646,1034 -1183,798 -2337,704 -3349,-78 -736,-568 -1325,-1551 -1691,-2808 -317,-1092 -485,-2440 -442,-3920 148,-5104 2802,-12025 10536,-15763 3201,-1547 6761,-2141 10244,-1856 3469,284 6877,1438 9793,3389 1407,511 2757,866 3908,818 993,-42 1877,-420 2565,-1347 261,-351 672,-586 1143,-604 825,-32 1520,611 1552,1436 71,1715 -173,3280 -669,4704 -435,1250 -1060,2381 -1834,3398 515,1737 719,4117 385,6269 -337,2170 -1221,4175 -2874,5285l-1 0 -23 16 0 -1c-45,30 -91,58 -140,83 -734,378 -1637,90 -2016,-645 -628,-1223 -1063,-2306 -1439,-3243 -441,-1099 -780,-1943 -1198,-2403 -3625,1553 -7748,2312 -11336,2441 -4344,155 -8065,-696 -9518,-2248l-5 -1c-40,-8 -117,29 -217,98 -258,178 -530,503 -802,917l-4 -2 -2 2z"/>
   <path class="fil1" d="M40000 85c11045,0 21045,4478 28284,11717 7238,7239 11716,17238 11716,28284 0,11045 -4478,21045 -11716,28284 -7239,7239 -17239,11716 -28284,11716 -11045,0 -21045,-4477 -28284,-11716 -7238,-7239 -11716,-17239 -11716,-28284 0,-11046 4478,-21045 11716,-28284 7239,-7239 17239,-11717 28284,-11717zm25502 14498c-6526,-6526 -15543,-10563 -25502,-10563 -9959,0 -18976,4037 -25502,10563 -6526,6526 -10563,15543 -10563,25503 0,9959 4037,18976 10563,25503 6526,6525 15543,10562 25502,10562 9959,0 18976,-4037 25502,-10562 6526,-6527 10563,-15544 10563,-25503 0,-9960 -4037,-18977 -10563,-25503z"/>
   <polygon class="fil4" points="56935,59845 61191,68625 70857,69960 63822,76721 65539,86326 56935,81725 48331,86326 50048,76721 43013,69960 52679,68625 "/>
   <path class="fil1" d="M57833 59999l4023 8298 9137 1262c546,76 927,580 852,1126 -33,241 -150,450 -318,601l-6627 6370 1624 9082c96,544 -266,1064 -809,1160 -261,47 -515,-12 -721,-146l-8059 -4310 -8135 4351c-486,259 -1090,75 -1348,-410 -109,-205 -140,-432 -102,-644l-4 -1 1624 -9082 -6648 -6389c-397,-382 -409,-1014 -27,-1411 161,-167 367,-267 582,-296l0 -1 9137 -1262 4023 -8298c239,-495 836,-704 1331,-464 212,102 371,268 465,464l0 0zm2460 9647l-3358 -6926 -3348 6905c-136,301 -419,527 -771,576l-7628 1054 5495 5281c270,223 415,580 349,949l-1354 7579 6788 -3630c283,-151 634,-162 938,0l6788 3630 -1355 -7579 3 -1c-56,-316 42,-654 291,-894l5551 -5335 -7627 -1054 0 0c-319,-45 -611,-243 -762,-555z"/>
  </g>
 </g>
</svg>
