<?xml version="1.0" encoding="UTF-8"?>
<!DOCTYPE svg PUBLIC "-//W3C//DTD SVG 1.0//EN" "http://www.w3.org/TR/2001/REC-SVG-20010904/DTD/svg10.dtd">
<!-- Creator: CorelDRAW Home & Student 2014 -->
<svg xmlns="http://www.w3.org/2000/svg" xml:space="preserve" width="154px" height="154px" version="1.0" style="shape-rendering:geometricPrecision; text-rendering:geometricPrecision; image-rendering:optimizeQuality; fill-rule:evenodd; clip-rule:evenodd"
viewBox="0 0 154000 154000"
 xmlns:xlink="http://www.w3.org/1999/xlink">
 <defs>
  <style type="text/css">
   <![CDATA[
    .str0 {stroke:#1376D1;stroke-width:2000.13;stroke-linecap:round;stroke-linejoin:round}
    .str2 {stroke:#1376D1;stroke-width:3999.88;stroke-linecap:round;stroke-linejoin:round}
    .str1 {stroke:#1376D1;stroke-width:2000.13;stroke-linecap:round;stroke-linejoin:round;stroke-dasharray:10000.638103 10000.638103}
    .fil1 {fill:none}
    .fil3 {fill:#669933}
    .fil2 {fill:#CC3300}
    .fil0 {fill:white}
    .fil4 {fill:#A2DEFF;fill-rule:nonzero}
   ]]>
  </style>
 </defs>
 <g id="Layer_x0020_1">
  <metadata id="CorelCorpID_0Corel-Layer"/>
  <g id="_501558768">
   <g>
    <g>
     <g>
      <path class="fil0 str0" d="M48364 86555l29842 -17229 7460 4308 -29842 17229 -7460 -4308zm36281 20905l29842 -17229 7468 4303 -29842 17230 -7468 -4304zm-12818 -7386l29842 -17229 7468 4303 -29843 17229 -7467 -4303zm-11689 -6736l29843 -17229 7467 4303 -29842 17230 -7468 -4304z"/>
      <line class="fil1 str1" x1="91605" y1="146551" x2="10326" y2= "99611" />
      <g>
       <path class="fil0 str0" d="M74285 61959l0 -44334 -3491 0 0 44334c0,409 782,739 1745,739 964,0 1746,-330 1746,-739z"/>
       <polygon class="fil0 str0" points="66908,17391 66908,42063 81661,34131 81661,9458 "/>
       <circle class="fil2 str0" transform="matrix(0.532958 -0.254144 -0 0.388641 74284.5 20576.9)" r="8000"/>
       <circle class="fil3 str0" transform="matrix(0.532958 -0.254144 -0 0.388641 74284.5 30733.8)" r="8000"/>
      </g>
      <polyline class="fil1 str0" points="18497,69315 45012,84624 101425,52054 "/>
      <polyline class="fil1 str0" points="105541,119571 95864,113984 127588,95669 "/>
     </g>
     <circle class="fil1 str2" cx="77000" cy="77000" r="75317"/>
    </g>
    <path class="fil4" d="M49508 55168l-11301 2544 -428 -1917c-571,-2546 -710,-4476 -409,-5811 301,-1335 1126,-2513 2474,-3514l1869 -1387c1402,-1033 1971,-2189 1685,-3445 -164,-736 -562,-1288 -1183,-1689 -621,-391 -1294,-505 -2018,-340 -1992,439 -2676,2054 -2051,4823l-10513 2358c-834,-3696 -662,-6908 516,-9635 874,-2011 2196,-3747 3979,-5219 1783,-1462 3751,-2434 5902,-2917 3803,-855 7305,-311 10475,1632 3180,1943 5181,4779 6015,8518 1041,4612 -99,8268 -3400,10965 -1072,881 -1697,1579 -1854,2081 -167,513 -87,1494 242,2953zm-5091 2890c1992,-449 3860,-109 5606,1011 1756,1120 2854,2671 3304,4652 438,1992 108,3840 -991,5542 -1109,1714 -2671,2790 -4673,3239 -2088,472 -3957,185 -5616,-861 -1649,-1046 -2704,-2618 -3176,-4706 -450,-2024 -141,-3903 947,-5617 1077,-1723 2617,-2810 4599,-3260z"/>
    <path class="fil4" d="M119568 62179l-14002 -2881 478 -2382c659,-3158 1479,-5410 2487,-6768 1021,-1371 2529,-2271 4566,-2725l2785 -616c2116,-468 3322,-1484 3645,-3051 181,-907 33,-1736 -470,-2496 -489,-761 -1187,-1232 -2096,-1426 -2447,-504 -4033,988 -4743,4462l-13016 -2674c931,-4593 2759,-8124 5472,-10593 1992,-1822 4367,-3106 7113,-3852 2745,-760 5454,-862 8125,-306 4724,969 8375,3349 10967,7152 2578,3791 3396,8023 2453,12655 -1176,5724 -4306,9273 -9403,10646 -1655,440 -2705,904 -3151,1393 -432,487 -835,1646 -1210,3462zm-7164 579c2460,503 4398,1838 5813,3989 1402,2152 1858,4451 1354,6925 -517,2461 -1825,4372 -3937,5735 -2112,1362 -4412,1791 -6913,1274 -2579,-530 -4543,-1798 -5878,-3818 -1323,-2020 -1726,-4320 -1196,-6913 517,-2513 1825,-4464 3910,-5852 2099,-1402 4385,-1844 6847,-1340z"/>
    <path class="fil4" d="M67732 127623l-9150 198 -37 -1550c-39,-2056 160,-3573 596,-4560 436,-987 1260,-1764 2463,-2331l1659 -779c1254,-584 1867,-1386 1848,-2405 -18,-590 -230,-1087 -652,-1491 -414,-394 -920,-596 -1510,-577 -1609,29 -2390,1159 -2343,3384l-8510 187c-65,-2990 578,-5452 1913,-7368 991,-1417 2295,-2558 3902,-3413 1616,-855 3292,-1305 5036,-1342 3092,-66 5723,905 7876,2906 2161,2000 3271,4508 3337,7533 76,3732 -1384,6390 -4381,7964 -976,516 -1573,955 -1775,1326 -209,363 -300,1139 -272,2318zm-4412 1367c1618,-38 3018,515 4200,1659 1190,1143 1800,2523 1829,4132 37,1618 -507,3001 -1634,4150 -1134,1157 -2507,1750 -4141,1787 -1694,29 -3102,-482 -4217,-1558 -1123,-1068 -1699,-2457 -1736,-4149 -38,-1643 507,-3052 1616,-4217 1110,-1174 2474,-1776 4083,-1804z"/>
   </g>
   <polygon class="fil0 str0" points="119169,124776 123425,133556 133090,134891 126056,141652 127773,151257 119169,146656 110564,151257 112282,141652 105247,134891 114912,133556 "/>
  </g>
 </g>
</svg>
